#!OML:ASF X:\für Bonn\!DataBase\2005_08_10_Bjorn_Final\c3d\bjorn.ASF
:FULLY-SPECIFIED
:DEGREES
203
root 4.83976 13.8703 0.358748 477.103 83.0522 -604.231
lowerback 23.2235 1.27086 3.38771
upperback 14.1256 3.69376 1.7856
thorax 2.6868 2.58432 -0.704707
lowerneck -10.2186 -4.9944 2.2686
upperneck -0.187783 -6.59295 -7.33329
head 1.37167 -3.42311 -3.03808
rclavicle 4.45278e-014 -2.38542e-014
rhumerus -0.699698 -20.5917 -77.8572
rradius 18.0968
rwrist 30.4575
rhand -23.7831 17.3675
rfingers 7.12502
rthumb 2.68685 -12.5953
lclavicle 4.45278e-014 -2.38542e-014
lhumerus -10.9658 -38.0448 62.9848
lradius 58.3513
lwrist -5.86163
lhand -30.5628 -9.86439
lfingers 7.12502
lthumb -3.86091 20.0804
rfemur -50.4541 -5.91767 0.889026
rtibia 110.466
rfoot -25.7478 28.6009
rtoes -22.4975
lfemur -59.5491 5.43707 -28.579
ltibia 107.217
lfoot -27.454 -1.74338
ltoes -25.5525
204
root 4.87408 14.0447 0.353941 477.038 83.0987 -604.538
lowerback 22.5629 1.35589 3.31157
upperback 13.9313 3.71415 1.64308
thorax 2.7922 2.57477 -0.794671
lowerneck -10.5977 -5.01835 2.07566
upperneck 0.414701 -6.57747 -7.18128
head 1.64853 -3.42972 -2.98698
rclavicle 2.70347e-014 6.36111e-014
rhumerus -1.1208 -20.1077 -78.0289
rradius 18.284
rwrist 29.2627
rhand -22.3866 16.7569
rfingers 7.12502
rthumb 4.03542 -13.1846
lclavicle 2.70347e-014 6.36111e-014
lhumerus -11.5735 -37.6785 63.6164
lradius 58.0886
lwrist -5.68653
lhand -30.3539 -10.0104
lfingers 7.12502
lthumb -3.65925 19.9379
rfemur -49.6074 -5.13583 1.21657
rtibia 108.763
rfoot -26.0504 27.9638
rtoes -23.0272
lfemur -58.5517 5.22219 -28.4647
ltibia 105.539
lfoot -27.4391 -1.79993
ltoes -25.0937
205
root 4.90973 14.2179 0.349912 476.853 83.1327 -604.987
lowerback 21.8506 1.45144 3.16864
upperback 13.7238 3.73437 1.51562
thorax 2.90556 2.55881 -0.828196
lowerneck -10.8389 -5.03295 1.88895
upperneck 0.903312 -6.55659 -7.02627
head 1.86489 -3.42896 -2.92717
rclavicle 3.18055e-014 1.59028e-014
rhumerus -1.55254 -19.6595 -78.1983
rradius 18.4254
rwrist 28.0614
rhand -21.0316 16.1236
rfingers 7.12502
rthumb 5.34381 -13.789
lclavicle 3.18055e-014 1.59028e-014
lhumerus -12.2251 -37.2952 64.3003
lradius 57.784
lwrist -5.51364
lhand -30.0823 -10.1286
lfingers 7.12502
lthumb -3.39692 19.8241
rfemur -48.7844 -4.38183 1.50695
rtibia 107.028
rfoot -26.4885 27.2694
rtoes -24.0904
lfemur -57.5603 5.02097 -28.3719
ltibia 103.826
lfoot -27.4269 -1.83571
ltoes -24.6416
206
root 4.94783 14.3919 0.345936 476.658 83.1647 -605.427
lowerback 21.1815 1.55011 3.03309
upperback 13.4675 3.76118 1.37997
thorax 2.94792 2.54381 -0.879714
lowerneck -10.9365 -5.05706 1.69809
upperneck 1.36021 -6.55309 -6.84018
head 2.04583 -3.43341 -2.85009
rclavicle 0 -5.40694e-014
rhumerus -2.13118 -19.1804 -78.3355
rradius 18.5654
rwrist 26.7666
rhand -19.8144 15.5079
rfingers 7.12502
rthumb 6.51902 -14.3717
lclavicle 0 -5.40694e-014
lhumerus -12.9442 -37.061 64.9999
lradius 57.4367
lwrist -5.27726
lhand -29.801 -10.2261
lfingers 7.12502
lthumb -3.12525 19.7307
rfemur -47.9002 -3.66908 1.7721
rtibia 105.24
rfoot -27.0466 26.5046
rtoes -25.6561
lfemur -56.5332 4.84403 -28.2818
ltibia 102.082
lfoot -27.4214 -1.91453
ltoes -24.1612
207
root 4.98793 14.5663 0.341871 476.428 83.2387 -605.917
lowerback 20.4568 1.6428 2.89898
upperback 13.2207 3.78191 1.26507
thorax 3.03052 2.52578 -0.904264
lowerneck -10.9716 -5.06539 1.486
upperneck 1.72257 -6.52963 -6.66453
head 2.18581 -3.42531 -2.76632
rclavicle -1.74931e-014 0
rhumerus -2.66749 -18.686 -78.478
rradius 18.6247
rwrist 25.3898
rhand -18.7473 15.0169
rfingers 7.12502
rthumb 7.54906 -14.8284
lclavicle -1.74931e-014 0
lhumerus -13.7404 -36.7227 65.766
lradius 57.063
lwrist -5.23989
lhand -29.5431 -10.2664
lfingers 7.12502
lthumb -2.8762 19.694
rfemur -47.0039 -2.92448 2.03274
rtibia 103.389
rfoot -27.3036 26.0499
rtoes -26.1904
lfemur -55.5103 4.69772 -28.1473
ltibia 100.297
lfoot -27.371 -2.00067
ltoes -23.6394
208
root 5.02981 14.7401 0.336376 476.131 83.3173 -606.466
lowerback 19.7621 1.73821 2.82678
upperback 12.9363 3.8173 1.10849
thorax 3.06813 2.51886 -1.01237
lowerneck -10.9919 -5.09842 1.40017
upperneck 2.14446 -6.55162 -6.56024
head 2.33576 -3.44191 -2.73281
rclavicle -2.70347e-014 -2.54444e-014
rhumerus -3.32782 -18.2789 -78.6528
rradius 18.7084
rwrist 23.9497
rhand -17.802 14.5774
rfingers 7.12502
rthumb 8.4614 -15.2331
lclavicle -2.70347e-014 -2.54444e-014
lhumerus -14.6386 -36.4766 66.5281
lradius 56.6841
lwrist -5.27709
lhand -29.3921 -10.3769
lfingers 7.12502
lthumb -2.73038 19.5854
rfemur -46.0503 -2.17338 2.24428
rtibia 101.471
rfoot -27.2739 25.8858
rtoes -25.6877
lfemur -54.4641 4.55242 -28.0122
ltibia 98.4835
lfoot -27.3093 -2.07005
ltoes -23.2648
209
root 5.07322 14.9143 0.33254 475.676 83.3587 -607.173
lowerback 19.0638 1.83715 2.68194
upperback 12.6501 3.8497 0.941211
thorax 3.10517 2.50676 -1.08934
lowerneck -10.9812 -5.1107 1.3863
upperneck 2.52159 -6.55621 -6.49852
head 2.46301 -3.44909 -2.72291
rclavicle 2.06736e-014 1.74931e-014
rhumerus -3.94849 -17.8833 -78.846
rradius 18.7395
rwrist 22.4143
rhand -16.8655 14.2315
rfingers 7.12502
rthumb 9.36517 -15.5405
lclavicle 2.06736e-014 1.74931e-014
lhumerus -15.5365 -36.2574 67.2647
lradius 56.2747
lwrist -5.33638
lhand -29.2822 -10.4745
lfingers 7.12502
lthumb -2.62429 19.4891
rfemur -45.0747 -1.44588 2.39199
rtibia 99.5141
rfoot -27.1018 25.8954
rtoes -24.5637
lfemur -53.3997 4.42644 -27.9204
ltibia 96.6215
lfoot -27.2365 -2.07902
ltoes -23.084
210
root 5.11705 15.0889 0.327891 475.325 83.4338 -607.739
lowerback 18.3885 1.90546 2.54989
upperback 12.3979 3.85356 0.805242
thorax 3.16919 2.48317 -1.13449
lowerneck -11.0354 -5.09791 1.35704
upperneck 2.86675 -6.52147 -6.48858
head 2.593 -3.43811 -2.72779
rclavicle -1.03368e-014 -4.77083e-015
rhumerus -4.52311 -17.4609 -79.0209
rradius 18.8067
rwrist 20.7652
rhand -15.9082 13.9809
rfingers 7.12502
rthumb 10.2887 -15.7475
lclavicle -1.03368e-014 -4.77083e-015
lhumerus -16.4707 -35.881 68.0593
lradius 55.8362
lwrist -5.55224
lhand -29.1949 -10.5675
lfingers 7.12502
lthumb -2.53996 19.3972
rfemur -44.0325 -0.760586 2.59381
rtibia 97.5038
rfoot -26.8806 25.8643
rtoes -23.1954
lfemur -52.2897 4.29162 -27.782
ltibia 94.7161
lfoot -27.1482 -2.17113
ltoes -22.6335
211
root 5.16209 15.2637 0.323367 474.879 83.5139 -608.381
lowerback 17.7371 1.96898 2.4189
upperback 12.1417 3.85584 0.66841
thorax 3.22007 2.45933 -1.18177
lowerneck -11.0721 -5.08009 1.2708
upperneck 3.22103 -6.47762 -6.39558
head 2.72777 -3.42043 -2.69377
rclavicle 7.15625e-015 6.36111e-015
rhumerus -5.09065 -17.1912 -79.2221
rradius 18.885
rwrist 19.2956
rhand -15.0063 13.7193
rfingers 7.12502
rthumb 11.1587 -15.964
lclavicle 7.15625e-015 6.36111e-015
lhumerus -17.4445 -35.5447 68.8469
lradius 55.4318
lwrist -5.72148
lhand -29.0732 -10.6055
lfingers 7.12502
lthumb -2.42237 19.3605
rfemur -42.9565 -0.146366 2.83956
rtibia 95.4709
rfoot -27.023 25.5011
rtoes -22.9656
lfemur -51.136 4.18133 -27.6484
ltibia 92.7721
lfoot -27.0653 -2.16404
ltoes -22.4026
212
root 5.20717 15.4402 0.318289 474.427 83.5731 -608.993
lowerback 17.1092 2.02965 2.27284
upperback 11.9128 3.86027 0.539694
thorax 3.29022 2.43806 -1.21176
lowerneck -11.1192 -5.06902 1.21825
upperneck 3.53239 -6.44556 -6.35275
head 2.84745 -3.40906 -2.68213
rclavicle -4.21423e-014 1.90833e-014
rhumerus -5.66489 -16.7492 -79.3961
rradius 19.035
rwrist 17.7601
rhand -14.2214 13.303
rfingers 7.12502
rthumb 11.9156 -16.3379
lclavicle -4.21423e-014 1.90833e-014
lhumerus -18.3567 -35.155 69.6511
lradius 54.9695
lwrist -6.02373
lhand -28.9274 -10.7512
lfingers 7.12502
lthumb -2.28157 19.2164
rfemur -41.8251 0.383239 3.08955
rtibia 93.3944
rfoot -27.4729 24.7925
rtoes -23.8199
lfemur -49.9285 4.06145 -27.5384
ltibia 90.7747
lfoot -26.958 -2.20852
ltoes -21.9872
213
root 5.25334 15.6137 0.313852 473.773 83.6389 -609.798
lowerback 16.4856 2.09089 2.13518
upperback 11.6861 3.8705 0.389506
thorax 3.3657 2.42173 -1.26924
lowerneck -11.0708 -5.05202 1.18423
upperneck 3.70856 -6.41861 -6.26687
head 2.9033 -3.39547 -2.65018
rclavicle -2.62396e-014 -2.06736e-014
rhumerus -6.2765 -16.2465 -79.6197
rradius 19.2264
rwrist 16.3006
rhand -13.6855 12.785
rfingers 7.12502
rthumb 12.4323 -16.8252
lclavicle -2.62396e-014 -2.06736e-014
lhumerus -19.2525 -34.7894 70.4218
lradius 54.4939
lwrist -6.25469
lhand -28.7898 -10.8841
lfingers 7.12502
lthumb -2.1487 19.0849
rfemur -40.67 0.891904 3.34747
rtibia 91.2903
rfoot -28.0053 23.9514
rtoes -25.0964
lfemur -48.7064 3.99615 -27.4446
ltibia 88.75
lfoot -26.8519 -2.19748
ltoes -21.6413
